<svg xmlns="http://www.w3.org/2000/svg" xmlns:xlink="http://www.w3.org/1999/xlink" width="500" zoomAndPan="magnify" viewBox="0 0 375 374.999991" height="500" preserveAspectRatio="xMidYMid meet" version="1.0"><defs><g/><clipPath id="f9fb997025"><path d="M 210 82 L 250 82 L 250 119 L 210 119 Z M 210 82 " clip-rule="nonzero"/></clipPath><clipPath id="8b32f5b773"><path d="M 212.796875 79.613281 L 250.699219 84.734375 L 245.476562 123.382812 L 207.574219 118.261719 Z M 212.796875 79.613281 " clip-rule="nonzero"/></clipPath><clipPath id="9552f332a6"><path d="M 212.796875 79.613281 L 250.699219 84.734375 L 245.476562 123.382812 L 207.574219 118.261719 Z M 212.796875 79.613281 " clip-rule="nonzero"/></clipPath><clipPath id="375f2e69e6"><path d="M 168 63 L 223 63 L 223 114 L 168 114 Z M 168 63 " clip-rule="nonzero"/></clipPath><clipPath id="4775b10ac4"><path d="M 172.167969 59.539062 L 224.195312 66.570312 L 217.0625 119.339844 L 165.035156 112.308594 Z M 172.167969 59.539062 " clip-rule="nonzero"/></clipPath><clipPath id="32b20b447e"><path d="M 172.167969 59.539062 L 224.195312 66.570312 L 217.0625 119.339844 L 165.035156 112.308594 Z M 172.167969 59.539062 " clip-rule="nonzero"/></clipPath></defs><rect x="-37.5" width="450" fill="#ffffff" y="-37.499999" height="449.999989" fill-opacity="1"/><rect x="-37.5" width="450" fill="#8ca8be" y="-37.499999" height="449.999989" fill-opacity="1"/><path fill="#315098" d="M 297.832031 149.171875 C 289.207031 132.523438 262.914062 127.496094 229.761719 133.410156 C 226.667969 131.210938 223.4375 129.238281 220.0625 127.496094 C 216.691406 125.75 213.214844 124.25 209.628906 123 C 206.046875 121.746094 202.394531 120.75 198.667969 120.011719 C 194.945312 119.273438 191.1875 118.804688 187.394531 118.597656 C 185.132812 118.199219 182.847656 118.007812 180.550781 118.019531 L 179.796875 118.019531 C 169.609375 118.183594 157.710938 121.539062 146.277344 127.441406 C 145.480469 127.851562 144.699219 128.289062 143.921875 128.714844 L 143.671875 128.851562 L 143.441406 128.976562 C 141.152344 130.34375 138.992188 131.632812 136.800781 133.082031 L 136.554688 133.246094 C 129.867188 137.628906 124.078125 142.984375 119.191406 149.308594 C 117.585938 151.453125 116.21875 153.734375 115.082031 156.15625 C 113.179688 159.207031 111.492188 162.367188 110.015625 165.644531 L 109.414062 167.015625 C 107.230469 172.078125 105.585938 177.3125 104.476562 182.710938 C 103.367188 188.113281 102.816406 193.570312 102.828125 199.085938 C 78.742188 222.816406 67.511719 247.324219 76.179688 264.03125 C 86.246094 283.460938 120.339844 287.078125 161.351562 275.945312 C 168.511719 277.980469 175.816406 279 183.261719 279 C 186.773438 278.996094 190.269531 278.761719 193.75 278.296875 C 197.230469 277.835938 200.664062 277.144531 204.054688 276.230469 C 207.445312 275.316406 210.761719 274.183594 214.003906 272.832031 C 217.242188 271.480469 220.382812 269.921875 223.417969 268.160156 C 226.453125 266.394531 229.363281 264.441406 232.140625 262.292969 C 234.921875 260.148438 237.546875 257.828125 240.023438 255.335938 C 242.496094 252.847656 244.796875 250.203125 246.921875 247.410156 C 249.050781 244.613281 250.984375 241.691406 252.726562 238.644531 C 255.125 234.40625 257.128906 229.984375 258.738281 225.390625 C 291.257812 198.359375 307.828125 168.535156 297.832031 149.171875 Z M 228.269531 133.851562 C 230.597656 135.464844 232.828125 137.199219 234.964844 139.054688 C 232.777344 137.683594 230.515625 136.480469 228.214844 135.34375 C 228.203125 134.835938 228.214844 134.34375 228.230469 133.851562 Z M 240.101562 143.957031 C 240.976562 144.859375 241.882812 145.859375 242.839844 146.898438 C 243.089844 150.117188 242.917969 153.3125 242.320312 156.484375 C 240.59375 154.773438 238.839844 153.171875 237.089844 151.734375 C 233.757812 148.992188 230.21875 146.542969 226.476562 144.394531 C 227.289062 141.855469 227.835938 139.265625 228.121094 136.617188 C 232.308594 138.726562 236.289062 141.171875 240.058594 143.957031 Z M 244.101562 148.472656 C 247.679688 152.820312 250.765625 157.496094 253.355469 162.496094 C 254.898438 165.472656 256.265625 168.527344 257.464844 171.65625 C 257.285156 173.027344 257.011719 174.546875 256.671875 176.066406 C 253.113281 169.269531 248.675781 163.101562 243.359375 157.566406 C 243.953125 154.5625 244.1875 151.53125 244.058594 148.472656 Z M 128.5 253.914062 C 127.132812 251.941406 125.96875 249.929688 124.832031 247.902344 C 129.648438 249.464844 134.585938 250.445312 139.632812 250.84375 C 140.140625 251.695312 140.6875 252.53125 141.234375 253.363281 C 136.988281 253.816406 132.730469 253.992188 128.460938 253.886719 Z M 175.210938 133.082031 L 176.785156 133.082031 C 176.398438 134.605469 175.789062 136.035156 174.960938 137.371094 C 170.480469 136.574219 165.964844 136.058594 161.421875 135.820312 C 161.734375 135.195312 161.9375 134.535156 162.023438 133.835938 C 166.402344 133.328125 170.800781 133.074219 175.210938 133.082031 Z M 229.980469 216.203125 C 227.75 217.914062 225.4375 219.582031 223.039062 221.242188 C 219.886719 214.378906 216.320312 207.742188 212.332031 201.332031 C 217.617188 197.207031 222.492188 192.640625 226.957031 187.636719 C 228.941406 190.308594 230.75 192.964844 232.335938 195.539062 C 234.734375 199.4375 236.859375 203.476562 238.71875 207.65625 C 235.960938 210.660156 233.046875 213.503906 229.980469 216.1875 Z M 141.949219 144.039062 C 142.308594 144.394531 142.730469 144.660156 143.207031 144.832031 L 143.671875 145.023438 L 143.796875 145.023438 C 141.507812 148.742188 139.449219 152.585938 137.621094 156.554688 C 136.042969 156.441406 134.515625 156.089844 133.046875 155.5 C 135.769531 151.488281 138.734375 147.667969 141.949219 144.039062 Z M 149.671875 144.695312 C 149.792969 146.476562 150.070312 149.941406 150.628906 154.703125 C 148.902344 155.273438 147.144531 155.730469 145.359375 156.074219 C 146.316406 150.953125 147.261719 147.199219 147.824219 145.121094 C 148.445312 145.027344 149.0625 144.898438 149.671875 144.734375 Z M 153.667969 143.066406 L 158.160156 151.679688 C 156.128906 152.730469 154.039062 153.640625 151.890625 154.417969 C 151.316406 149.488281 151.054688 145.980469 150.945312 144.394531 C 151.882812 144.027344 152.789062 143.597656 153.667969 143.105469 Z M 157.132812 140.792969 C 158.066406 141.546875 160.925781 143.875 164.980469 147.515625 C 163.128906 148.832031 161.199219 150.015625 159.1875 151.078125 L 154.738281 142.503906 C 155.574219 142 156.371094 141.441406 157.132812 140.832031 Z M 158.160156 249.230469 C 155.777344 245.210938 153.679688 241.046875 151.863281 236.742188 C 150.726562 234.003906 149.671875 231.265625 148.644531 228.058594 C 155.3125 227.320312 161.855469 225.988281 168.28125 224.0625 C 171.222656 231.0625 174.601562 237.84375 178.414062 244.410156 C 176.214844 245.222656 174.027344 245.996094 171.855469 246.738281 C 167.339844 247.84375 162.777344 248.671875 158.160156 249.230469 Z M 179.425781 192.992188 L 190.230469 213.875 C 183.40625 217.371094 176.332031 220.25 169.007812 222.515625 C 166.019531 215.296875 163.417969 207.945312 161.199219 200.453125 C 167.480469 198.46875 173.558594 195.980469 179.425781 192.992188 Z M 160.898438 199.304688 C 160.269531 197.140625 159.667969 194.964844 159.105469 192.839844 C 157.738281 187.488281 156.367188 181.886719 155.328125 176.410156 C 159.714844 174.925781 163.972656 173.128906 168.101562 171.027344 L 178.867188 191.964844 C 173.078125 194.902344 167.089844 197.347656 160.898438 199.304688 Z M 190.792969 215.011719 L 200.855469 234.507812 C 193.949219 238.085938 186.855469 241.246094 179.578125 244 C 175.785156 237.453125 172.421875 230.691406 169.484375 223.71875 C 176.84375 221.441406 183.945312 218.535156 190.792969 215.011719 Z M 180.523438 192.429688 C 186.367188 189.378906 191.921875 185.867188 197.1875 181.898438 C 202.019531 188.054688 206.519531 194.445312 210.6875 201.070312 C 204.589844 205.738281 198.136719 209.847656 191.324219 213.394531 Z M 179.960938 191.335938 L 169.117188 170.410156 C 173.21875 168.269531 177.140625 165.832031 180.878906 163.097656 C 184.917969 167.316406 188.777344 171.628906 192.394531 175.941406 C 193.761719 177.53125 195.132812 179.214844 196.503906 180.941406 C 191.273438 184.859375 185.757812 188.324219 179.960938 191.335938 Z M 168.59375 169.316406 L 159.761719 152.253906 C 161.894531 151.117188 163.9375 149.84375 165.898438 148.433594 C 170.691406 152.773438 175.484375 157.429688 180.070312 162.25 C 176.414062 164.878906 172.589844 167.234375 168.59375 169.316406 Z M 167.484375 169.878906 C 163.460938 171.925781 159.3125 173.679688 155.039062 175.136719 C 153.78125 168.605469 152.753906 162.042969 151.972656 155.609375 C 154.265625 154.820312 156.492188 153.875 158.652344 152.773438 Z M 153.863281 175.53125 C 150.210938 176.730469 146.492188 177.644531 142.703125 178.269531 C 143.082031 171.277344 143.886719 164.335938 145.125 157.445312 C 147.039062 157.113281 148.925781 156.65625 150.78125 156.074219 C 151.5625 162.429688 152.601562 169 153.863281 175.53125 Z M 154.09375 176.75 C 155.203125 182.324219 156.464844 187.84375 157.859375 193.183594 C 158.394531 195.222656 158.996094 197.289062 159.679688 199.699219 C 154.339844 201.34375 148.898438 202.546875 143.359375 203.300781 C 142.960938 199.714844 142.703125 196.320312 142.566406 192.9375 C 142.398438 188.582031 142.425781 184.0625 142.566406 179.488281 C 146.46875 178.882812 150.296875 177.964844 154.054688 176.738281 Z M 160.023438 200.863281 C 162.207031 208.351562 164.78125 215.699219 167.746094 222.910156 C 161.351562 224.832031 154.832031 226.148438 148.191406 226.867188 C 145.914062 219.554688 144.332031 212.089844 143.441406 204.480469 C 149.066406 203.71875 154.59375 202.507812 160.023438 200.851562 Z M 201.980469 233.933594 L 191.886719 214.449219 C 198.730469 210.90625 205.21875 206.796875 211.34375 202.125 C 215.320312 208.527344 218.878906 215.152344 222.011719 222.007812 C 215.566406 226.375 208.890625 230.347656 201.980469 233.933594 Z M 198.160156 181.148438 C 202.636719 177.703125 206.808594 173.917969 210.675781 169.792969 C 216.371094 174.921875 221.550781 180.519531 226.214844 186.597656 C 221.78125 191.605469 216.929688 196.167969 211.660156 200.289062 C 207.496094 193.671875 202.996094 187.292969 198.160156 181.148438 Z M 197.40625 180.1875 C 196.035156 178.433594 194.667969 176.738281 193.296875 175.136719 C 189.710938 170.847656 185.875 166.550781 181.890625 162.347656 C 185.027344 160.003906 187.957031 157.429688 190.683594 154.621094 C 194.613281 157.140625 198.390625 159.800781 201.925781 162.511719 C 204.527344 164.507812 207.074219 166.617188 209.730469 168.988281 C 205.925781 173.054688 201.816406 176.789062 197.40625 180.1875 Z M 181.070312 161.457031 C 176.46875 156.648438 171.71875 152.007812 166.910156 147.640625 C 168.445312 146.492188 169.890625 145.246094 171.25 143.902344 C 177.589844 146.882812 183.726562 150.234375 189.65625 153.964844 C 186.988281 156.6875 184.128906 159.183594 181.070312 161.457031 Z M 171.019531 142.4375 C 165.828125 140.027344 161.914062 138.535156 160.066406 137.875 L 160.503906 137.300781 L 160.679688 137.011719 C 165.234375 137.230469 169.753906 137.746094 174.238281 138.5625 C 173.277344 139.945312 172.203125 141.238281 171.019531 142.4375 Z M 159.257812 138.890625 C 160.789062 139.4375 164.734375 140.886719 170.074219 143.351562 C 168.777344 144.59375 167.410156 145.75 165.964844 146.816406 C 161.980469 143.230469 159.121094 140.902344 158.066406 139.972656 C 158.503906 139.65625 158.902344 139.273438 159.257812 138.890625 Z M 145.578125 145.40625 L 146.496094 145.40625 C 145.917969 147.558594 144.988281 151.363281 144.058594 156.363281 C 142.695312 156.570312 141.328125 156.683594 139.949219 156.703125 L 138.839844 156.703125 C 140.6875 152.800781 142.757812 149.023438 145.058594 145.367188 Z M 138.332031 157.921875 L 140.046875 157.921875 C 141.316406 157.898438 142.578125 157.796875 143.839844 157.621094 C 142.621094 164.492188 141.828125 171.414062 141.457031 178.378906 C 139.339844 178.671875 137.210938 178.835938 135.074219 178.875 L 134.375 178.875 C 133.199219 178.875 132.019531 178.875 130.871094 178.722656 C 132.714844 171.535156 135.203125 164.582031 138.332031 157.855469 Z M 134.363281 180.1875 L 135.089844 180.1875 C 137.195312 180.136719 139.296875 179.972656 141.386719 179.695312 C 141.179688 184.199219 141.167969 188.679688 141.386719 192.976562 C 141.523438 196.386719 141.785156 199.921875 142.195312 203.492188 C 138.867188 203.902344 135.523438 204.113281 132.171875 204.125 C 130.664062 204.125 129.171875 204.125 127.722656 203.988281 C 127.695312 198.109375 128.183594 192.277344 129.1875 186.488281 C 129.570312 184.335938 130.035156 182.144531 130.554688 179.984375 C 131.816406 180.066406 133.089844 180.121094 134.363281 180.121094 Z M 132.144531 205.273438 C 135.53125 205.269531 138.902344 205.058594 142.261719 204.644531 C 143.164062 212.234375 144.738281 219.683594 146.988281 226.992188 C 144.25 227.222656 141.660156 227.347656 139.101562 227.347656 C 136.28125 227.355469 133.46875 227.199219 130.664062 226.882812 C 128.769531 219.757812 127.773438 212.507812 127.679688 205.136719 C 129.132812 205.234375 130.636719 205.273438 132.144531 205.273438 Z M 139.113281 228.550781 C 141.851562 228.550781 144.589844 228.414062 147.328125 228.15625 C 148.382812 231.414062 149.480469 234.371094 150.671875 237.191406 C 152.453125 241.382812 154.5 245.433594 156.820312 249.351562 C 153.4375 249.71875 150.046875 249.90625 146.644531 249.914062 C 144.496094 249.914062 142.359375 249.832031 140.304688 249.667969 C 136.3125 243 133.222656 235.941406 131.035156 228.484375 C 131.011719 228.363281 130.980469 228.246094 130.9375 228.128906 C 133.65625 228.421875 136.382812 228.574219 139.113281 228.578125 Z M 146.742188 251.132812 C 150.363281 251.125 153.972656 250.921875 157.574219 250.515625 L 157.574219 250.625 C 152.601562 251.777344 147.578125 252.644531 142.507812 253.226562 C 142.003906 252.476562 141.496094 251.722656 141.03125 250.953125 C 142.976562 251.105469 144.851562 251.160156 146.742188 251.160156 Z M 211.566406 168.890625 C 214.867188 165.300781 217.816406 161.4375 220.410156 157.308594 C 226.375 161.636719 231.71875 166.632812 236.445312 172.285156 C 233.785156 177.058594 230.667969 181.507812 227.09375 185.636719 C 222.421875 179.585938 217.246094 174.003906 211.566406 168.890625 Z M 210.660156 168.082031 C 207.921875 165.699219 205.390625 163.550781 202.761719 161.539062 C 199.269531 158.800781 195.53125 156.210938 191.628906 153.71875 C 194.109375 151.089844 196.28125 148.230469 198.144531 145.132812 C 200.335938 145.996094 202.472656 146.925781 204.527344 147.871094 C 209.746094 150.332031 214.714844 153.230469 219.425781 156.566406 C 216.835938 160.675781 213.898438 164.515625 210.605469 168.082031 Z M 190.601562 153.019531 C 184.675781 149.289062 178.542969 145.929688 172.210938 142.941406 C 173.457031 141.628906 174.574219 140.214844 175.566406 138.699219 C 182.898438 140.015625 190.046875 142.007812 197.007812 144.667969 C 195.160156 147.695312 193.003906 150.492188 190.546875 153.046875 Z M 141.304688 142.914062 C 137.90625 146.734375 134.769531 150.761719 131.898438 154.992188 C 130.796875 154.390625 129.925781 153.550781 129.28125 152.472656 C 132.960938 148.398438 136.960938 144.664062 141.277344 141.273438 C 141.15625 141.832031 141.164062 142.386719 141.304688 142.941406 Z M 132.308594 156.511719 C 133.820312 157.160156 135.394531 157.5625 137.03125 157.71875 C 133.914062 164.449219 131.445312 171.410156 129.625 178.601562 C 126.804688 178.3125 124.113281 177.570312 121.546875 176.367188 C 124.476562 169.402344 128.066406 162.792969 132.308594 156.539062 Z M 129.324219 179.789062 C 128.804688 181.925781 128.351562 184.078125 127.953125 186.171875 C 126.914062 191.996094 126.394531 197.867188 126.394531 203.78125 C 122.503906 203.484375 118.6875 202.78125 114.945312 201.671875 C 115.839844 193.488281 117.832031 185.578125 120.914062 177.941406 L 121.078125 177.546875 C 123.703125 178.761719 126.449219 179.523438 129.324219 179.832031 Z M 126.433594 205.042969 C 126.546875 212.390625 127.535156 219.621094 129.40625 226.730469 C 124.679688 226.144531 120.113281 224.9375 115.710938 223.117188 C 115.222656 220.480469 114.882812 217.824219 114.683594 215.148438 C 114.414062 211.082031 114.453125 207.019531 114.808594 202.960938 C 118.609375 204.058594 122.484375 204.753906 126.433594 205.042969 Z M 129.691406 228.003906 C 129.6875 228.097656 129.6875 228.1875 129.691406 228.277344 C 129.691406 228.46875 129.773438 228.648438 129.828125 228.839844 C 131.976562 236.121094 134.984375 243.027344 138.855469 249.558594 C 133.742188 249.082031 128.765625 247.980469 123.929688 246.257812 C 120.253906 239.402344 117.625 232.167969 116.039062 224.554688 C 120.445312 226.289062 124.996094 227.4375 129.691406 228.003906 Z M 240.527344 207.464844 C 244.058594 203.484375 247.222656 199.230469 250.015625 194.703125 C 250.332031 195.441406 250.632812 196.222656 250.933594 196.976562 C 247.65625 200.65625 244.1875 204.140625 240.527344 207.4375 Z M 239.621094 206.644531 C 237.796875 202.585938 235.71875 198.660156 233.390625 194.867188 C 231.734375 192.128906 229.84375 189.390625 227.777344 186.652344 C 231.242188 182.671875 234.292969 178.398438 236.9375 173.835938 C 237.035156 173.671875 237.128906 173.503906 237.210938 173.328125 C 237.347656 173.464844 237.472656 173.617188 237.59375 173.765625 C 242.367188 179.789062 246.3125 186.308594 249.425781 193.332031 C 246.570312 198.066406 243.304688 202.492188 239.621094 206.617188 Z M 237.019531 171.152344 C 232.285156 165.542969 226.945312 160.585938 221 156.28125 L 221.121094 156.0625 C 221.3125 155.757812 221.507812 155.457031 221.671875 155.144531 C 223.410156 152.121094 224.851562 148.960938 225.996094 145.667969 C 229.59375 147.742188 233 150.097656 236.210938 152.734375 C 238.207031 154.382812 240.109375 156.132812 241.921875 157.976562 C 240.871094 162.578125 239.238281 166.960938 237.019531 171.125 Z M 225.328125 143.765625 C 218.152344 139.808594 210.578125 136.878906 202.609375 134.972656 L 201.828125 134.78125 C 202.09375 132.585938 201.859375 130.445312 201.128906 128.359375 C 210.113281 129.570312 218.695312 132.128906 226.875 136.042969 C 226.625 138.683594 226.109375 141.269531 225.328125 143.804688 Z M 201.636719 136.015625 L 202.335938 136.179688 C 210.269531 138.078125 217.800781 141.007812 224.929688 144.96875 C 223.660156 148.648438 222.023438 152.152344 220.011719 155.484375 C 215.242188 152.132812 210.222656 149.214844 204.949219 146.722656 C 202.925781 145.777344 200.84375 144.859375 198.664062 143.984375 C 200.085938 141.5 201.078125 138.859375 201.636719 136.054688 Z M 200.609375 134.546875 C 193.230469 132.910156 185.765625 131.996094 178.207031 131.808594 C 178.355469 130.527344 178.21875 129.277344 177.796875 128.058594 C 180.042969 127.8125 182.164062 127.648438 184.261719 127.566406 C 185.628906 127.566406 187 127.46875 188.367188 127.46875 C 192.175781 127.46875 195.96875 127.699219 199.746094 128.152344 C 200.578125 130.210938 200.863281 132.34375 200.609375 134.546875 Z M 178.015625 133.082031 C 185.59375 133.253906 193.078125 134.167969 200.472656 135.820312 C 199.945312 138.59375 198.980469 141.203125 197.582031 143.65625 C 190.652344 140.980469 183.539062 138.964844 176.234375 137.601562 C 177.058594 136.1875 177.652344 134.679688 178.015625 133.082031 Z M 177.003906 131.835938 L 175.210938 131.835938 C 170.765625 131.828125 166.339844 132.074219 161.925781 132.578125 C 161.898438 132.457031 161.863281 132.335938 161.816406 132.21875 C 161.675781 131.898438 161.480469 131.617188 161.226562 131.371094 C 166.25 129.917969 171.359375 128.882812 176.550781 128.261719 C 177.019531 129.417969 177.171875 130.613281 177.003906 131.851562 Z M 159.761719 130.46875 C 159.5 130.410156 159.234375 130.371094 158.96875 130.34375 C 163.542969 128.039062 168.296875 126.183594 173.222656 124.785156 C 174.332031 125.324219 175.246094 126.097656 175.960938 127.097656 C 170.460938 127.765625 165.0625 128.90625 159.761719 130.523438 Z M 156.503906 130.167969 L 156.066406 130.167969 C 159.144531 127.160156 162.675781 124.84375 166.664062 123.222656 C 168.265625 123.253906 169.835938 123.492188 171.375 123.9375 C 166.199219 125.519531 161.246094 127.613281 156.503906 130.222656 Z M 129.117188 145.449219 C 129.4375 144.5625 129.828125 143.707031 130.296875 142.886719 C 130.609375 142.355469 130.992188 141.75 131.390625 141.164062 C 137.222656 137.78125 141.277344 136.875 143.441406 136.65625 C 138.332031 139.066406 133.558594 142.015625 129.117188 145.503906 Z M 142.480469 138.5625 L 142.195312 139.027344 C 137.3125 142.640625 132.824219 146.695312 128.734375 151.1875 C 128.382812 149.976562 128.328125 148.753906 128.570312 147.515625 C 132.882812 144.027344 137.519531 141.042969 142.480469 138.5625 Z M 131.199219 155.964844 C 126.964844 162.226562 123.378906 168.839844 120.449219 175.804688 C 118.523438 174.703125 116.980469 173.207031 115.820312 171.316406 C 118.300781 166.730469 121.140625 162.382812 124.339844 158.265625 C 125.613281 156.636719 126.953125 155.019531 128.445312 153.363281 C 129.164062 154.441406 130.082031 155.308594 131.199219 155.964844 Z M 119.984375 176.902344 L 119.765625 177.421875 C 116.683594 185.101562 114.683594 193.050781 113.769531 201.277344 C 111.25 200.453125 108.84375 199.375 106.550781 198.042969 C 108.085938 189.105469 110.957031 180.621094 115.164062 172.589844 C 116.441406 174.394531 118.046875 175.832031 119.984375 176.902344 Z M 113.65625 202.605469 C 113.265625 206.8125 113.214844 211.027344 113.507812 215.242188 C 113.683594 217.613281 113.988281 220.050781 114.410156 222.527344 C 111.488281 221.191406 108.796875 219.496094 106.332031 217.433594 C 105.976562 215.953125 105.648438 214.433594 105.375 212.929688 C 105.339844 208.398438 105.65625 203.894531 106.332031 199.414062 C 108.667969 200.71875 111.109375 201.78125 113.65625 202.605469 Z M 114.65625 223.992188 C 116.136719 231.535156 118.632812 238.726562 122.148438 245.558594 C 120.683594 244.957031 119.3125 244.328125 118.136719 243.726562 C 116.191406 240.9375 114.4375 238.035156 112.878906 235.015625 C 110.308594 230.007812 108.296875 224.785156 106.839844 219.351562 C 109.265625 221.203125 111.871094 222.75 114.65625 223.992188 Z M 123.050781 247.269531 C 124.230469 249.488281 125.570312 251.679688 126.96875 253.84375 L 126.394531 253.84375 C 123.933594 251.328125 121.648438 248.65625 119.546875 245.832031 C 120.722656 246.3125 121.886719 246.804688 123.050781 247.242188 Z M 174.976562 271.808594 C 175.742188 272.507812 176.496094 273.179688 177.277344 273.933594 C 176.058594 273.933594 174.824219 273.933594 173.605469 273.933594 C 171.964844 273.933594 170.308594 273.933594 168.664062 273.78125 C 170.789062 273.167969 172.894531 272.503906 174.976562 271.78125 Z M 176.347656 271.359375 C 181.824219 269.46875 187.382812 267.34375 192.984375 264.964844 C 194.695312 266.960938 196.449219 268.894531 198.226562 270.699219 C 191.972656 272.402344 185.609375 273.445312 179.140625 273.835938 C 178.125 273 177.195312 272.179688 176.277344 271.386719 Z M 194.148438 264.511719 C 200.0625 261.964844 206.019531 259.152344 212.015625 256.074219 L 216.027344 263.867188 C 210.753906 266.546875 205.277344 268.710938 199.597656 270.359375 C 197.667969 268.453125 195.859375 266.484375 194.09375 264.441406 Z M 213.113281 255.5 C 219.109375 252.378906 224.886719 249.078125 230.421875 245.683594 C 231.089844 248.339844 231.652344 250.96875 232.089844 253.527344 C 227.382812 257.222656 222.367188 260.4375 217.042969 263.167969 Z M 260.464844 184.460938 C 259.546875 182.1875 258.558594 179.96875 257.476562 177.820312 C 257.78125 176.65625 258.039062 175.476562 258.246094 174.3125 C 259.285156 177.496094 260.113281 180.734375 260.738281 184.023438 Z M 259.667969 185.734375 C 257.308594 189.324219 254.714844 192.738281 251.890625 195.976562 C 251.550781 195.128906 251.21875 194.277344 250.863281 193.457031 L 251.246094 192.800781 C 253.667969 188.625 255.578125 184.230469 256.984375 179.613281 C 257.890625 181.53125 258.777344 183.585938 259.613281 185.664062 Z M 256.175781 177.96875 C 254.765625 182.886719 252.765625 187.550781 250.179688 191.964844 C 247.101562 185.160156 243.242188 178.828125 238.609375 172.972656 C 238.457031 172.765625 238.28125 172.574219 238.117188 172.382812 L 237.855469 172.082031 C 240.113281 167.925781 241.8125 163.554688 242.949219 158.964844 C 248.253906 164.640625 252.644531 170.953125 256.121094 177.902344 Z M 197.226562 121.445312 C 198.050781 121.445312 198.871094 121.445312 199.652344 121.445312 C 202.175781 122.003906 204.660156 122.6875 207.113281 123.5 C 214.199219 125.753906 220.832031 128.949219 227.011719 133.082031 C 227.011719 133.648438 227.011719 134.222656 227.011719 134.808594 C 218.621094 130.835938 209.820312 128.253906 200.609375 127.070312 C 200.585938 126.992188 200.550781 126.914062 200.515625 126.839844 C 199.3125 124.570312 197.605469 122.78125 195.394531 121.472656 Z M 199.105469 126.921875 C 195.554688 126.492188 191.996094 126.265625 188.421875 126.238281 C 186.917969 126.238281 185.546875 126.320312 184.179688 126.386719 C 181.90625 126.484375 179.632812 126.660156 177.234375 126.933594 C 176.625 125.882812 175.820312 125.015625 174.8125 124.332031 C 180.730469 122.785156 186.746094 121.875 192.859375 121.59375 C 194.15625 122.125 195.335938 122.84375 196.402344 123.75 C 197.46875 124.65625 198.371094 125.703125 199.105469 126.894531 Z M 175.46875 120.074219 C 177.976562 119.828125 180.523438 119.703125 183.042969 119.703125 C 184.410156 119.703125 185.863281 119.703125 187.148438 119.816406 C 188.121094 119.984375 189.082031 120.214844 190.023438 120.5 C 184.359375 120.964844 178.792969 121.964844 173.320312 123.5 C 171.976562 122.886719 170.578125 122.488281 169.117188 122.292969 C 171.183594 121.472656 173.222656 120.757812 175.46875 120.074219 Z M 169.117188 120.949219 C 168.171875 121.320312 167.265625 121.703125 166.378906 122.085938 L 165.378906 122.085938 L 163.636719 122.128906 C 165.472656 121.691406 167.292969 121.28125 169.117188 120.949219 Z M 163.636719 123.402344 C 157.902344 126.332031 155.257812 129.125 154.136719 130.632812 L 153.21875 130.878906 C 153.980469 128.546875 155.171875 126.460938 156.792969 124.621094 C 159.035156 123.996094 161.316406 123.589844 163.636719 123.402344 Z M 154.695312 125.265625 C 153.355469 127.136719 152.375 129.183594 151.753906 131.398438 L 151.121094 131.660156 L 150.492188 126.839844 C 151.890625 126.238281 153.300781 125.714844 154.695312 125.265625 Z M 149.082031 127.441406 L 149.300781 127.347656 L 149.945312 132.207031 L 149.535156 132.425781 L 147.398438 128.316406 C 147.960938 127.976562 148.574219 127.714844 149.082031 127.441406 Z M 145.042969 129.507812 C 145.46875 129.289062 145.878906 129.058594 146.289062 128.824219 L 148.464844 133.082031 L 148.246094 133.21875 L 144.589844 129.769531 Z M 143.496094 130.441406 L 147.207031 133.863281 C 147.082031 133.941406 146.964844 134.03125 146.851562 134.125 C 144.648438 133.257812 142.367188 132.800781 140.003906 132.753906 C 141.097656 131.960938 142.277344 131.179688 143.496094 130.441406 Z M 138.265625 134.082031 C 138.746094 134.03125 139.230469 134.011719 139.714844 134.015625 C 141.75 134.03125 143.730469 134.367188 145.660156 135.015625 L 145.195312 135.425781 L 144.496094 135.425781 C 142.742188 135.425781 139.019531 135.863281 133.417969 138.710938 C 134.894531 137.023438 136.507812 135.480469 138.265625 134.082031 Z M 131.855469 138.5625 C 131.472656 139.027344 131.117188 139.476562 130.789062 139.929688 L 130.664062 140.109375 C 130.0625 140.449219 129.460938 140.820312 128.859375 141.191406 C 129.84375 140.355469 130.84375 139.464844 131.855469 138.5625 Z M 116.203125 156.730469 C 118.585938 152.910156 121.28125 149.324219 124.285156 145.96875 C 125.898438 144.734375 127.515625 143.613281 129.078125 142.613281 C 128.335938 143.925781 127.789062 145.3125 127.433594 146.777344 C 123.074219 150.300781 119.085938 154.203125 115.464844 158.484375 C 115.710938 157.910156 115.929688 157.308594 116.203125 156.730469 Z M 114.535156 161.621094 C 118.304688 156.835938 122.53125 152.496094 127.214844 148.597656 C 127.128906 149.863281 127.328125 151.082031 127.816406 152.253906 C 126.199219 154.046875 124.75 155.785156 123.378906 157.554688 C 120.308594 161.492188 117.566406 165.648438 115.164062 170.027344 C 114.625 168.691406 114.304688 167.308594 114.195312 165.871094 C 114.089844 164.4375 114.203125 163.019531 114.535156 161.621094 Z M 111.136719 166.222656 C 111.753906 165.34375 112.371094 164.46875 112.988281 163.632812 C 112.699219 166.324219 113.152344 168.878906 114.355469 171.300781 C 109.976562 179.496094 106.980469 188.167969 105.359375 197.316406 C 104.921875 197.042969 104.484375 196.757812 104.058594 196.441406 C 104.230469 191.222656 104.914062 186.066406 106.105469 180.980469 C 107.296875 175.894531 108.972656 170.976562 111.136719 166.222656 Z M 105.195312 198.714844 C 104.839844 200.988281 104.566406 203.261719 104.386719 205.5625 C 104.183594 203.042969 104.085938 200.535156 104.113281 198.070312 C 104.46875 198.261719 104.824219 198.496094 105.195312 198.714844 Z M 95.363281 238.617188 C 90.160156 228.578125 93.40625 215.339844 102.882812 201.480469 C 103.015625 205.417969 103.433594 209.324219 104.128906 213.203125 L 104.195312 213.488281 C 105.640625 221.226562 108.167969 228.585938 111.78125 235.578125 C 115.199219 242.21875 119.472656 248.25 124.597656 253.679688 C 110.535156 252.53125 99.992188 247.546875 95.363281 238.617188 Z M 163.636719 275.300781 L 165.242188 274.835938 C 167.980469 275.082031 170.71875 275.207031 173.457031 275.207031 C 175.15625 275.207031 176.878906 275.207031 178.589844 275.070312 C 179.6875 276 180.796875 276.890625 181.878906 277.808594 C 175.699219 277.683594 169.621094 276.847656 163.636719 275.300781 Z M 183.917969 277.753906 L 183.78125 277.644531 C 182.742188 276.847656 181.617188 275.972656 180.414062 274.902344 C 186.757812 274.441406 192.992188 273.34375 199.117188 271.617188 C 200.378906 272.863281 201.636719 274.054688 202.898438 275.179688 C 196.691406 276.8125 190.378906 277.671875 183.960938 277.753906 Z M 204.335938 274.863281 C 203.074219 273.753906 201.800781 272.578125 200.472656 271.277344 C 206.011719 269.636719 211.355469 267.507812 216.507812 264.894531 L 218.753906 269.25 C 214.144531 271.585938 209.351562 273.457031 204.375 274.863281 Z M 219.890625 268.644531 L 217.644531 264.292969 C 222.808594 261.578125 227.683594 258.417969 232.269531 254.816406 C 232.554688 256.570312 232.789062 258.320312 232.96875 260.007812 C 228.894531 263.320312 224.535156 266.199219 219.890625 268.644531 Z M 231.460938 244.886719 C 236.664062 241.65625 241.625 238.335938 246.34375 234.921875 C 246.511719 236.179688 246.660156 237.441406 246.785156 238.699219 C 242.695312 243.78125 238.132812 248.390625 233.089844 252.53125 C 232.671875 250.054688 232.128906 247.523438 231.460938 244.929688 Z M 234.105469 259.089844 C 233.882812 257.226562 233.652344 255.527344 233.390625 253.925781 C 238.347656 249.898438 242.859375 245.421875 246.921875 240.492188 C 247.042969 242.082031 247.125 243.546875 247.167969 244.957031 C 243.394531 250.214844 239.039062 254.941406 234.105469 259.128906 Z M 247.480469 234.085938 C 249.34375 232.714844 251.164062 231.347656 252.960938 229.976562 C 251.390625 232.496094 249.703125 234.933594 247.90625 237.289062 C 247.769531 236.261719 247.632812 235.195312 247.480469 234.125 Z M 251.589844 238 C 250.589844 239.726562 249.480469 241.507812 248.277344 243.273438 C 248.277344 241.902344 248.113281 240.4375 247.988281 239.164062 C 250.824219 235.582031 253.386719 231.8125 255.671875 227.855469 L 256.808594 226.9375 C 255.371094 230.769531 253.648438 234.472656 251.644531 238.042969 Z M 261.640625 182.378906 C 260.667969 177.695312 259.289062 173.132812 257.5 168.695312 C 255.710938 164.261719 253.542969 160.015625 250.996094 155.964844 C 248.453125 151.917969 245.566406 148.125 242.339844 144.589844 C 239.117188 141.058594 235.605469 137.835938 231.804688 134.933594 C 248.234375 135.234375 260.820312 140.273438 265.96875 150.214844 C 270.542969 159.019531 268.609375 170.371094 261.640625 182.378906 Z M 261.640625 182.378906 " fill-opacity="1" fill-rule="nonzero"/><g clip-path="url(#f9fb997025)"><g clip-path="url(#8b32f5b773)"><g clip-path="url(#9552f332a6)"><path fill="#315098" d="M 231.203125 86.3125 L 234.378906 95.628906 L 245.003906 96.257812 L 236.085938 103.804688 L 236.8125 114.066406 L 228.125 109.410156 L 217.953125 115.125 L 221.5 104.703125 L 214.488281 97.96875 L 225.367188 96.183594 Z M 232.078125 82.492188 L 235.949219 93.847656 L 248.914062 94.617188 C 249.128906 94.628906 249.296875 94.816406 249.285156 95.035156 C 249.277344 95.152344 249.21875 95.253906 249.136719 95.320312 L 238.191406 104.582031 L 239.082031 117.164062 C 239.097656 117.382812 238.933594 117.570312 238.714844 117.585938 C 238.632812 117.59375 238.550781 117.570312 238.484375 117.53125 L 227.875 111.84375 L 215.394531 118.855469 C 215.203125 118.960938 214.960938 118.894531 214.851562 118.703125 C 214.796875 118.601562 214.789062 118.484375 214.824219 118.382812 L 219.160156 105.636719 L 210.609375 97.429688 C 210.453125 97.277344 210.445312 97.027344 210.597656 96.871094 C 210.660156 96.804688 210.738281 96.765625 210.820312 96.753906 L 224.183594 94.558594 L 231.363281 82.421875 C 231.472656 82.234375 231.714844 82.167969 231.902344 82.28125 C 231.988281 82.332031 232.046875 82.40625 232.078125 82.496094 Z M 235.28125 94.355469 L 231.605469 83.5625 L 224.773438 95.121094 C 224.714844 95.21875 224.617188 95.289062 224.496094 95.308594 L 211.726562 97.40625 L 219.867188 105.21875 C 219.992188 105.320312 220.046875 105.492188 219.992188 105.65625 L 215.910156 117.65625 L 227.675781 111.046875 C 227.789062 110.984375 227.933594 110.976562 228.054688 111.042969 L 238.242188 116.503906 L 237.390625 104.457031 C 237.375 104.328125 237.421875 104.195312 237.527344 104.109375 L 247.875 95.351562 L 235.648438 94.625 C 235.488281 94.621094 235.339844 94.519531 235.28125 94.355469 Z M 230.171875 93.96875 L 231.726562 98.539062 L 236.9375 98.847656 L 232.5625 102.546875 L 232.921875 107.582031 L 228.660156 105.296875 L 223.671875 108.097656 L 225.410156 102.988281 L 221.972656 99.6875 L 227.308594 98.8125 Z M 230.171875 93.96875 " fill-opacity="1" fill-rule="evenodd"/></g></g></g><g clip-path="url(#375f2e69e6)"><g clip-path="url(#4775b10ac4)"><g clip-path="url(#32b20b447e)"><path fill="#315098" d="M 197.453125 68.742188 L 201.816406 81.539062 L 216.40625 82.40625 L 204.160156 92.769531 L 205.15625 106.867188 L 193.226562 100.472656 L 179.25 108.316406 L 184.125 94 L 174.492188 84.753906 L 189.433594 82.300781 Z M 198.65625 63.496094 L 203.96875 79.09375 L 221.777344 80.148438 C 222.078125 80.167969 222.304688 80.425781 222.289062 80.726562 C 222.277344 80.886719 222.199219 81.023438 222.085938 81.117188 L 207.050781 93.839844 L 208.273438 111.121094 C 208.296875 111.421875 208.070312 111.679688 207.769531 111.703125 C 207.65625 111.710938 207.542969 111.679688 207.453125 111.625 L 192.878906 103.8125 L 175.734375 113.441406 C 175.472656 113.589844 175.140625 113.496094 174.992188 113.234375 C 174.914062 113.09375 174.902344 112.933594 174.953125 112.792969 L 180.910156 95.285156 L 169.164062 84.011719 C 168.945312 83.804688 168.9375 83.460938 169.144531 83.242188 C 169.230469 83.15625 169.339844 83.101562 169.453125 83.082031 L 187.8125 80.066406 L 197.671875 63.394531 C 197.824219 63.136719 198.15625 63.050781 198.414062 63.203125 C 198.53125 63.273438 198.613281 63.378906 198.652344 63.496094 Z M 203.054688 79.789062 L 198.003906 64.964844 L 188.617188 80.839844 C 188.539062 80.972656 188.402344 81.074219 188.238281 81.101562 L 170.699219 83.980469 L 181.878906 94.710938 C 182.050781 94.851562 182.128906 95.089844 182.054688 95.3125 L 176.441406 111.796875 L 192.605469 102.71875 C 192.761719 102.632812 192.957031 102.625 193.128906 102.714844 L 207.121094 110.214844 L 205.949219 93.664062 C 205.929688 93.488281 205.992188 93.308594 206.136719 93.1875 L 220.355469 81.15625 L 203.558594 80.160156 C 203.335938 80.15625 203.132812 80.011719 203.054688 79.789062 Z M 196.03125 79.257812 L 198.171875 85.535156 L 205.328125 85.960938 L 199.320312 91.042969 L 199.8125 97.957031 L 193.957031 94.820312 L 187.105469 98.667969 L 189.496094 91.648438 L 184.769531 87.113281 L 192.097656 85.910156 Z M 196.03125 79.257812 " fill-opacity="1" fill-rule="evenodd"/></g></g></g><path stroke-linecap="butt" transform="matrix(0.749647, 0.0229921, -0.0229921, 0.749647, 88.398647, 228.028622)" fill="none" stroke-linejoin="miter" d="M 20.792272 49.998969 L 1.710437 50.000613 L 1.708762 -6.968822 L 20.795803 -6.970626 L 20.795854 11.209793 C 21.517853 8.92617 22.521608 6.654747 23.812326 4.395367 C 25.102884 2.13078 26.649392 0.0563536 28.456736 -1.838485 C 30.263921 -3.73853 32.296362 -5.259885 34.549014 -6.397186 C 36.811918 -7.540011 39.274751 -8.110572 41.932308 -8.108709 C 43.448657 -8.108319 44.863188 -7.8599 46.191676 -7.358724 C 47.525051 -6.868119 48.554473 -6.263977 49.27978 -5.551502 L 49.278411 23.795668 L 48.71049 23.797454 C 47.983366 22.006403 47.015654 20.186255 45.801988 18.331965 C 44.588003 16.467263 43.180665 14.754393 41.585339 13.198402 C 39.990014 11.64241 38.236881 10.377852 36.31585 9.415458 C 34.394499 8.442652 32.357691 7.952779 30.195333 7.95657 C 28.673777 7.95634 27.272722 8.317169 25.981755 9.039377 C 24.690788 9.761584 23.642229 10.742106 22.835919 11.975738 C 22.04002 13.20905 21.639832 14.602182 21.640719 16.160178 C 21.642598 17.410709 22.184389 18.425826 23.271298 19.205372 C 24.353001 19.985078 25.786788 20.691456 27.567294 21.319459 C 29.358052 21.941937 31.322041 22.605999 33.464467 23.311485 C 35.617146 24.011446 37.754429 24.889046 39.876158 25.939079 C 42.00798 26.978381 43.965898 28.293977 45.744707 29.886027 C 47.534087 31.482964 48.966623 33.507708 50.042474 35.965465 C 51.128418 38.412491 51.673299 41.39719 51.67207 44.924927 C 51.671907 45.769079 51.644596 46.577588 51.585093 47.35582 C 51.530795 48.133892 51.370367 49.019434 51.098283 50.002196 L 29.056631 50.000825 C 29.583962 49.015446 30.026978 47.829432 30.390726 46.437418 C 30.754632 45.05061 30.932438 43.372496 30.934554 41.402755 C 30.931305 39.427968 30.551795 37.417824 29.790658 35.367277 C 29.034568 33.311365 28.092823 31.318465 26.970947 29.39883 C 25.854436 27.484241 24.738148 25.746812 23.617197 24.197115 C 22.496086 22.642211 21.55603 21.38398 20.791982 20.427787 Z M 20.792272 49.998969 " stroke="#8ca8be" stroke-width="9.686482" stroke-opacity="1" stroke-miterlimit="4"/><path stroke-linecap="butt" transform="matrix(0.739294, -0.126269, 0.126269, 0.739294, 122.990708, 229.343423)" fill="none" stroke-linejoin="miter" d="M 0.846921 28.804181 C 0.846672 24.814903 1.408122 21.465788 2.533024 18.746569 C 3.651916 16.031607 5.165094 13.854241 7.06567 12.223864 C 8.966246 10.593486 11.124498 9.403401 13.533538 8.662998 C 15.942579 7.922595 18.436621 7.550722 21.014787 7.552513 L 44.438426 7.548105 L 44.495282 39.233927 C 44.492301 40.829112 44.703449 42.408032 45.119333 43.963799 C 45.535218 45.519566 46.201564 46.753531 47.108104 47.663942 C 46.276457 48.573367 45.113858 49.378713 43.630575 50.081733 C 42.157561 50.786506 40.507006 51.138648 38.678911 51.138157 C 36.326767 51.143268 34.384988 50.880307 32.867222 50.362174 C 31.353713 49.850052 29.952924 48.987319 28.653712 47.777355 C 27.852982 48.876992 26.894243 49.664319 25.772362 50.138458 C 24.660749 50.614352 23.63555 50.893654 22.700147 50.987511 C 21.774134 51.088255 21.210513 51.139935 21.015294 51.138295 C 18.288114 51.142756 15.716736 50.729992 13.298527 49.915405 C 10.885452 49.101695 8.740631 47.800142 6.857175 46.020137 C 4.985741 44.231619 3.514544 41.924963 2.449596 39.095912 C 1.381268 36.255716 0.847043 32.825139 0.846921 28.804181 Z M 20.791027 39.17984 C 20.794184 40.739087 20.805106 42.283808 20.822039 43.824273 C 20.840726 45.35447 21.004309 46.624092 21.306778 47.637396 C 21.615258 48.646443 22.184354 49.150492 23.019199 49.150419 C 23.742724 49.152468 24.242375 48.825674 24.522409 48.176047 C 24.807577 47.527298 24.978553 46.742801 25.037089 45.812291 C 25.089615 44.886037 25.119724 43.998225 25.120528 43.158246 L 25.063501 10.235995 C 24.607225 9.782918 24.133781 9.55411 23.64229 9.554705 C 22.358779 9.55212 21.558077 10.218493 21.25045 11.55558 C 20.944578 12.882398 20.795556 15.023285 20.792239 17.981621 Z M 20.791027 39.17984 " stroke="#8ca8be" stroke-width="9.686482" stroke-opacity="1" stroke-miterlimit="4"/><path stroke-linecap="butt" transform="matrix(0.688146, -0.298254, 0.298254, 0.688146, 151.851688, 226.324965)" fill="none" stroke-linejoin="miter" d="M 1.710574 7.552089 L 22.215076 7.549697 L 22.213961 9.831161 C 23.349662 8.887242 24.81032 8.084164 26.593865 7.426707 C 28.381552 6.759692 30.553602 6.423885 33.103164 6.421992 C 36.217597 6.42651 38.720134 6.886737 40.611413 7.814302 C 42.51432 8.741229 43.939949 9.983534 44.897858 11.545357 C 45.91682 10.215928 47.450144 9.035638 49.501973 7.994929 C 51.562724 6.946734 54.202644 6.422032 57.431293 6.424965 C 59.934341 6.425618 62.048037 6.813815 63.770311 7.594336 C 65.506285 8.369441 66.893059 9.413257 67.932705 10.721006 C 68.97713 12.030826 69.739906 13.479693 70.212113 15.075095 C 70.695948 16.669859 70.934943 18.266359 70.935947 19.861887 L 70.935913 49.998335 L 50.363709 49.999765 L 50.361771 16.161394 C 50.363403 15.594453 50.344012 14.984341 50.306303 14.337908 C 50.270666 13.686695 50.13546 13.134241 49.905466 12.682615 C 49.682321 12.228282 49.264021 12.001572 48.650565 12.002485 C 48.03918 11.998619 47.583412 12.238172 47.275775 12.712221 C 46.979766 13.185633 46.781081 13.775021 46.674939 14.478314 C 46.585205 15.183042 46.546765 15.887295 46.564398 16.593145 C 46.593023 17.28673 46.608435 17.866734 46.605853 18.331087 L 46.605713 50.00014 L 26.040358 49.998863 L 26.03842 16.160492 C 26.040053 15.593551 26.01859 14.988218 25.982953 14.337005 C 25.945244 13.690572 25.810039 13.138118 25.575266 12.684421 C 25.354192 12.225309 24.940671 12.00067 24.327215 12.001583 C 23.492175 12.002958 22.929989 12.343976 22.643364 13.031486 C 22.356103 13.707366 22.212043 14.485048 22.211185 15.364532 L 22.214661 49.998278 L 1.710158 50.000669 Z M 1.710574 7.552089 " stroke="#8ca8be" stroke-width="9.686482" stroke-opacity="1" stroke-miterlimit="4"/><path stroke-linecap="butt" transform="matrix(0.597611, -0.453168, 0.453168, 0.597611, 196.126616, 206.627756)" fill="none" stroke-linejoin="miter" d="M 0.849161 28.804831 C 0.847343 24.816224 1.408834 21.463938 2.533634 18.747975 C 3.654283 16.028865 5.165806 13.854538 7.064053 12.221849 C 8.96645 10.592306 11.122768 9.403696 13.53401 8.663315 C 15.945252 7.922935 18.43684 7.550693 21.017073 7.552884 L 44.437194 7.552815 L 44.494613 39.232731 C 44.49451 40.827545 44.703878 42.404716 45.118567 43.961098 C 45.537407 45.520627 46.201712 46.756451 47.107333 47.665421 C 46.276487 48.571455 45.115955 49.377827 43.633035 50.083534 C 42.157411 50.788239 40.50658 51.137844 38.681545 51.139648 C 36.325239 51.14385 34.385969 50.882547 32.864738 50.363034 C 31.355956 49.852962 29.951125 48.99031 28.650243 47.775078 C 27.853778 48.877131 26.89542 49.666864 25.774167 50.136981 C 24.661215 50.613392 23.636791 50.895477 22.69775 50.987386 C 21.77116 51.088736 21.209423 51.139931 21.012539 51.140973 C 18.287506 51.1401 15.71463 50.731692 13.298062 49.918898 C 10.884641 49.101953 8.739404 47.802045 6.859203 46.023324 C 4.981147 44.233156 3.515209 41.925369 2.445793 39.094672 C 1.379524 36.259825 0.851844 32.826777 0.849161 28.804831 Z M 20.795609 39.178199 C 20.790491 40.736527 20.803114 42.288699 20.821027 43.825274 C 20.837938 45.354552 21.001027 46.622099 21.311297 47.635213 C 21.61427 48.64933 22.181414 49.151295 23.017883 49.151553 C 23.742889 49.152264 24.244618 48.826788 24.519922 48.179277 C 24.80982 47.52976 24.980645 46.744194 25.03454 45.811133 C 25.089438 44.885368 25.120163 44.000102 25.119418 43.156336 L 25.062318 10.234737 C 24.609507 9.780252 24.13571 9.551701 23.645075 9.552231 C 22.35546 9.554784 21.558189 10.218284 21.251118 11.554178 C 20.943044 12.882776 20.795247 15.025774 20.793134 17.98518 Z M 20.795609 39.178199 " stroke="#8ca8be" stroke-width="9.686482" stroke-opacity="1" stroke-miterlimit="4"/><path stroke-linecap="butt" transform="matrix(0.5073, -0.552401, 0.552401, 0.5073, 220.361241, 188.600964)" fill="none" stroke-linejoin="miter" d="M 1.710776 49.997264 L 1.707398 7.550735 L 22.213666 7.549863 L 22.212705 21.516766 C 22.215223 19.725388 22.545062 17.951628 23.213729 16.184916 C 23.882083 14.425563 24.832114 12.803529 26.063824 11.318813 C 27.299057 9.837933 28.746681 8.649929 30.41758 7.758949 C 32.088479 6.86797 33.950475 6.423779 36.007404 6.422854 C 37.444921 6.425056 38.809786 6.748551 40.09816 7.39686 C 41.394207 8.038123 42.219667 8.736767 42.559508 9.499526 L 35.092798 35.534255 L 34.521376 35.535739 C 34.519274 33.939532 34.32294 32.316629 33.925016 30.666714 C 33.523882 29.005605 32.94339 27.487995 32.183853 26.106526 C 31.421107 24.713863 30.51016 23.598727 29.443341 22.768166 C 28.387717 21.934396 27.215049 21.512182 25.924713 21.516244 C 24.748911 21.514122 23.834822 21.858581 23.186283 22.546098 C 22.534534 23.22242 22.212062 23.956991 22.211195 24.756855 L 22.213207 49.999915 Z M 1.710776 49.997264 " stroke="#8ca8be" stroke-width="9.686482" stroke-opacity="1" stroke-miterlimit="4"/><path stroke-linecap="butt" transform="matrix(0.388292, -0.641661, 0.641661, 0.388292, 239.370063, 169.364154)" fill="none" stroke-linejoin="miter" d="M 0.845587 21.515261 C 0.849401 17.075009 1.512157 13.039587 2.83655 9.41345 C 4.174311 5.779223 6.034752 2.656633 8.426785 0.0402873 C 10.820577 -2.583211 13.656133 -4.597406 16.943302 -5.996081 C 20.229534 -7.406365 23.815876 -8.10945 27.692479 -8.111552 C 31.557473 -8.112716 35.132191 -7.396417 38.413937 -5.967112 C 41.706355 -4.550352 44.549041 -2.538794 46.941994 0.0675616 C 49.33401 2.662309 51.195629 5.778914 52.519697 9.415616 C 53.854437 13.039773 54.523476 17.072858 54.522358 21.517565 C 54.51971 26.030164 53.836663 30.132655 52.466065 33.823279 C 51.101682 37.504054 49.182376 40.650089 46.705451 43.256929 C 44.239197 45.851224 41.335636 47.833519 37.997462 49.20827 C 38.795955 49.431248 39.746774 49.543785 40.847222 49.541425 C 42.405907 49.541805 43.954307 49.183146 45.495118 48.469903 C 47.034992 47.745053 48.474982 46.824961 49.821303 45.69978 C 51.165865 44.581752 52.294208 43.44846 53.216182 42.30612 L 55.092081 53.242884 C 53.913255 53.77969 52.735847 54.218235 51.56255 54.562976 C 50.382102 54.905957 49.031296 55.07808 47.514589 55.076649 C 45.687037 55.074603 43.990717 54.816599 42.434544 54.297244 C 40.883763 53.786801 39.532564 53.143408 38.373795 52.365307 C 37.215026 51.587205 36.274235 50.817214 35.551422 50.055334 C 33.158511 50.778933 30.540032 51.139837 27.691531 51.140744 C 23.814928 51.142846 20.232235 50.443548 16.940754 49.038397 C 13.660882 47.632309 10.822652 45.618054 8.431459 43.004546 C 6.034872 40.382126 4.172317 37.253912 2.837577 33.629755 C 1.509053 29.995749 0.848926 25.957272 0.845587 21.515261 Z M 21.250496 -5.035119 C 19.880679 -4.69321 18.929366 -3.277432 18.40195 -0.778872 C 17.870901 1.703624 17.785113 5.012464 18.136497 9.134281 C 18.49949 13.255162 19.311399 17.987105 20.570465 23.337264 C 21.82496 28.659751 23.256229 33.248231 24.866968 37.10716 C 26.483922 40.95624 28.113393 43.860238 29.764293 45.813761 C 31.415194 47.767283 32.90814 48.574495 34.243132 48.235398 C 35.607441 47.854209 36.498838 46.419898 36.912866 43.935164 C 37.33311 41.440581 37.313485 38.128564 36.855751 33.991963 C 36.405169 29.857121 35.55046 25.14499 34.298775 19.857329 C 33.084384 14.510574 31.715613 9.914713 30.19516 6.074201 C 28.677403 2.238145 27.144433 -0.657284 25.605161 -2.617479 C 24.068585 -4.573219 22.613161 -5.378786 21.250496 -5.035119 Z M 21.250496 -5.035119 " stroke="#8ca8be" stroke-width="9.686482" stroke-opacity="1" stroke-miterlimit="4"/><g fill="#315098" fill-opacity="1"><g transform="translate(87.24904, 265.510995)"><g><path d="M 15.59375 0.484375 L 1.28125 0.046875 L 2.59375 -42.671875 L 16.90625 -42.234375 L 16.484375 -28.609375 C 17.078125 -30.304688 17.878906 -31.984375 18.890625 -33.640625 C 19.910156 -35.304688 21.117188 -36.832031 22.515625 -38.21875 C 23.910156 -39.601562 25.472656 -40.695312 27.203125 -41.5 C 28.929688 -42.300781 30.789062 -42.671875 32.78125 -42.609375 C 33.914062 -42.578125 34.972656 -42.359375 35.953125 -41.953125 C 36.941406 -41.554688 37.703125 -41.078125 38.234375 -40.515625 L 37.5625 -18.5 L 37.125 -18.515625 C 36.625 -19.878906 35.9375 -21.269531 35.0625 -22.6875 C 34.195312 -24.113281 33.1875 -25.425781 32.03125 -26.625 C 30.875 -27.832031 29.582031 -28.820312 28.15625 -29.59375 C 26.738281 -30.363281 25.222656 -30.773438 23.609375 -30.828125 C 22.460938 -30.859375 21.394531 -30.617188 20.40625 -30.109375 C 19.425781 -29.609375 18.625 -28.898438 18 -27.984375 C 17.375 -27.078125 17.046875 -26.039062 17.015625 -24.875 C 16.984375 -23.925781 17.363281 -23.144531 18.15625 -22.53125 C 18.945312 -21.925781 20.003906 -21.367188 21.328125 -20.859375 C 22.648438 -20.347656 24.109375 -19.804688 25.703125 -19.234375 C 27.296875 -18.660156 28.878906 -17.957031 30.453125 -17.125 C 32.023438 -16.289062 33.460938 -15.257812 34.765625 -14.03125 C 36.066406 -12.800781 37.09375 -11.253906 37.84375 -9.390625 C 38.601562 -7.523438 38.941406 -5.265625 38.859375 -2.609375 C 38.847656 -1.984375 38.804688 -1.378906 38.734375 -0.796875 C 38.671875 -0.210938 38.53125 0.441406 38.3125 1.171875 L 21.78125 0.671875 C 22.195312 -0.0546875 22.554688 -0.9375 22.859375 -1.96875 C 23.160156 -3 23.335938 -4.253906 23.390625 -5.734375 C 23.429688 -7.210938 23.191406 -8.734375 22.671875 -10.296875 C 22.148438 -11.859375 21.488281 -13.367188 20.6875 -14.828125 C 19.894531 -16.285156 19.097656 -17.609375 18.296875 -18.796875 C 17.492188 -19.992188 16.816406 -20.953125 16.265625 -21.671875 Z M 15.59375 0.484375 "/></g></g></g><g fill="#315098" fill-opacity="1"><g transform="translate(129.304157, 266.308138)"><g><path d="M -2.046875 -15.765625 C -2.554688 -18.722656 -2.566406 -21.273438 -2.078125 -23.421875 C -1.597656 -25.578125 -0.757812 -27.375 0.4375 -28.8125 C 1.644531 -30.257812 3.09375 -31.410156 4.78125 -32.265625 C 6.46875 -33.128906 8.269531 -33.722656 10.1875 -34.046875 L 27.5 -37 L 31.53125 -13.59375 C 31.726562 -12.40625 32.082031 -11.257812 32.59375 -10.15625 C 33.101562 -9.0625 33.753906 -8.234375 34.546875 -7.671875 C 34.046875 -6.890625 33.289062 -6.144531 32.28125 -5.4375 C 31.269531 -4.738281 30.085938 -4.273438 28.734375 -4.046875 C 26.992188 -3.742188 25.53125 -3.6875 24.34375 -3.875 C 23.164062 -4.0625 22.019531 -4.523438 20.90625 -5.265625 C 20.445312 -4.347656 19.832031 -3.644531 19.0625 -3.15625 C 18.300781 -2.664062 17.582031 -2.320312 16.90625 -2.125 C 16.226562 -1.9375 15.820312 -1.832031 15.6875 -1.8125 C 13.65625 -1.46875 11.695312 -1.441406 9.8125 -1.734375 C 7.925781 -2.035156 6.175781 -2.726562 4.5625 -3.8125 C 2.945312 -4.894531 1.566406 -6.414062 0.421875 -8.375 C -0.722656 -10.34375 -1.546875 -12.804688 -2.046875 -15.765625 Z M 14 -10.640625 C 14.195312 -9.484375 14.398438 -8.335938 14.609375 -7.203125 C 14.828125 -6.066406 15.109375 -5.144531 15.453125 -4.4375 C 15.804688 -3.726562 16.289062 -3.425781 16.90625 -3.53125 C 17.4375 -3.625 17.765625 -3.925781 17.890625 -4.4375 C 18.023438 -4.957031 18.054688 -5.5625 17.984375 -6.25 C 17.910156 -6.945312 17.820312 -7.601562 17.71875 -8.21875 L 13.515625 -32.578125 C 13.117188 -32.847656 12.738281 -32.953125 12.375 -32.890625 C 11.414062 -32.722656 10.90625 -32.128906 10.84375 -31.109375 C 10.789062 -30.085938 10.953125 -28.484375 11.328125 -26.296875 Z M 14 -10.640625 "/></g></g></g><g fill="#315098" fill-opacity="1"><g transform="translate(166.764369, 260.732257)"><g><path d="M -11.484375 -29.734375 L 2.640625 -35.84375 L 3.3125 -34.265625 C 3.8125 -35.265625 4.578125 -36.253906 5.609375 -37.234375 C 6.640625 -38.222656 8.03125 -39.097656 9.78125 -39.859375 C 11.914062 -40.785156 13.773438 -41.210938 15.359375 -41.140625 C 16.953125 -41.078125 18.304688 -40.648438 19.421875 -39.859375 C 19.734375 -41.078125 20.4375 -42.347656 21.53125 -43.671875 C 22.632812 -45.003906 24.300781 -46.148438 26.53125 -47.109375 C 28.25 -47.859375 29.816406 -48.222656 31.234375 -48.203125 C 32.660156 -48.191406 33.929688 -47.890625 35.046875 -47.296875 C 36.160156 -46.703125 37.113281 -45.925781 37.90625 -44.96875 C 38.707031 -44.019531 39.347656 -43 39.828125 -41.90625 L 48.8125 -21.15625 L 34.671875 -15.03125 L 24.578125 -38.328125 C 24.398438 -38.722656 24.203125 -39.132812 23.984375 -39.5625 C 23.765625 -39.988281 23.507812 -40.320312 23.21875 -40.5625 C 22.925781 -40.8125 22.570312 -40.847656 22.15625 -40.671875 C 21.738281 -40.484375 21.492188 -40.179688 21.421875 -39.765625 C 21.359375 -39.347656 21.394531 -38.882812 21.53125 -38.375 C 21.675781 -37.863281 21.859375 -37.367188 22.078125 -36.890625 C 22.304688 -36.410156 22.488281 -36.019531 22.625 -35.71875 L 32.078125 -13.90625 L 17.921875 -7.765625 L 7.828125 -31.0625 C 7.648438 -31.457031 7.453125 -31.867188 7.234375 -32.296875 C 7.015625 -32.734375 6.757812 -33.070312 6.46875 -33.3125 C 6.1875 -33.5625 5.835938 -33.59375 5.421875 -33.40625 C 4.847656 -33.164062 4.5625 -32.765625 4.5625 -32.203125 C 4.570312 -31.648438 4.707031 -31.070312 4.96875 -30.46875 L 15.296875 -6.625 L 1.171875 -0.515625 Z M -11.484375 -29.734375 "/></g></g></g><g fill="#315098" fill-opacity="1"><g transform="translate(218.784996, 236.508312)"><g><path d="M -9.078125 -13.046875 C -10.898438 -15.441406 -12.09375 -17.703125 -12.65625 -19.828125 C -13.21875 -21.953125 -13.300781 -23.9375 -12.90625 -25.78125 C -12.507812 -27.625 -11.753906 -29.3125 -10.640625 -30.84375 C -9.535156 -32.375 -8.210938 -33.726562 -6.671875 -34.90625 L 7.328125 -45.515625 L 21.71875 -26.609375 C 22.4375 -25.648438 23.269531 -24.800781 24.21875 -24.0625 C 25.175781 -23.320312 26.132812 -22.882812 27.09375 -22.75 C 27.019531 -21.820312 26.695312 -20.8125 26.125 -19.71875 C 25.550781 -18.625 24.722656 -17.664062 23.640625 -16.84375 C 22.222656 -15.769531 20.945312 -15.046875 19.8125 -14.671875 C 18.6875 -14.296875 17.453125 -14.175781 16.109375 -14.3125 C 16.140625 -13.289062 15.925781 -12.382812 15.46875 -11.59375 C 15.019531 -10.800781 14.535156 -10.164062 14.015625 -9.6875 C 13.503906 -9.207031 13.191406 -8.925781 13.078125 -8.84375 C 11.441406 -7.601562 9.71875 -6.679688 7.90625 -6.078125 C 6.101562 -5.472656 4.234375 -5.273438 2.296875 -5.484375 C 0.367188 -5.703125 -1.550781 -6.414062 -3.46875 -7.625 C -5.394531 -8.84375 -7.265625 -10.648438 -9.078125 -13.046875 Z M 7.515625 -15.890625 C 8.210938 -14.960938 8.921875 -14.039062 9.640625 -13.125 C 10.359375 -12.21875 11.035156 -11.53125 11.671875 -11.0625 C 12.304688 -10.601562 12.867188 -10.566406 13.359375 -10.953125 C 13.796875 -11.273438 13.953125 -11.691406 13.828125 -12.203125 C 13.710938 -12.722656 13.457031 -13.273438 13.0625 -13.859375 C 12.675781 -14.441406 12.296875 -14.976562 11.921875 -15.46875 L -3.03125 -35.125 C -3.507812 -35.195312 -3.898438 -35.117188 -4.203125 -34.890625 C -4.972656 -34.304688 -5.144531 -33.546875 -4.71875 -32.609375 C -4.300781 -31.671875 -3.425781 -30.320312 -2.09375 -28.5625 Z M 7.515625 -15.890625 "/></g></g></g><g fill="#315098" fill-opacity="1"><g transform="translate(247.981291, 213.965954)"><g><path d="M 0.859375 -0.9375 L -22.59375 -22.46875 L -12.171875 -33.8125 L -4.46875 -26.734375 C -5.445312 -27.640625 -6.253906 -28.722656 -6.890625 -29.984375 C -7.535156 -31.242188 -7.957031 -32.585938 -8.15625 -34.015625 C -8.351562 -35.453125 -8.269531 -36.859375 -7.90625 -38.234375 C -7.550781 -39.609375 -6.851562 -40.863281 -5.8125 -42 C -5.082031 -42.789062 -4.207031 -43.378906 -3.1875 -43.765625 C -2.175781 -44.148438 -1.378906 -44.253906 -0.796875 -44.078125 L 9.8125 -26.734375 L 9.515625 -26.40625 C 8.628906 -27.21875 7.628906 -27.929688 6.515625 -28.546875 C 5.398438 -29.171875 4.269531 -29.625 3.125 -29.90625 C 1.976562 -30.1875 0.898438 -30.242188 -0.109375 -30.078125 C -1.117188 -29.921875 -1.953125 -29.484375 -2.609375 -28.765625 C -3.191406 -28.117188 -3.457031 -27.441406 -3.40625 -26.734375 C -3.351562 -26.035156 -3.109375 -25.488281 -2.671875 -25.09375 L 11.28125 -12.28125 Z M 0.859375 -0.9375 "/></g></g></g><g fill="#315098" fill-opacity="1"><g transform="translate(271.453123, 188.778764)"><g><path d="M -17.953125 -11.609375 C -20.796875 -13.328125 -23.125 -15.316406 -24.9375 -17.578125 C -26.757812 -19.835938 -28.039062 -22.242188 -28.78125 -24.796875 C -29.53125 -27.359375 -29.71875 -29.960938 -29.34375 -32.609375 C -28.976562 -35.265625 -28.046875 -37.835938 -26.546875 -40.328125 C -25.046875 -42.816406 -23.203125 -44.835938 -21.015625 -46.390625 C -18.828125 -47.941406 -16.429688 -48.984375 -13.828125 -49.515625 C -11.222656 -50.046875 -8.492188 -50.03125 -5.640625 -49.46875 C -2.796875 -48.90625 0.046875 -47.765625 2.890625 -46.046875 C 5.796875 -44.285156 8.164062 -42.25 10 -39.9375 C 11.832031 -37.632812 13.101562 -35.1875 13.8125 -32.59375 C 14.519531 -30.007812 14.660156 -27.378906 14.234375 -24.703125 C 14.691406 -25.117188 15.132812 -25.679688 15.5625 -26.390625 C 16.164062 -27.390625 16.535156 -28.519531 16.671875 -29.78125 C 16.804688 -31.050781 16.773438 -32.335938 16.578125 -33.640625 C 16.390625 -34.941406 16.101562 -36.101562 15.71875 -37.125 L 23.46875 -34.09375 C 23.351562 -33.132812 23.175781 -32.207031 22.9375 -31.3125 C 22.695312 -30.425781 22.285156 -29.492188 21.703125 -28.515625 C 20.992188 -27.347656 20.171875 -26.363281 19.234375 -25.5625 C 18.304688 -24.757812 17.367188 -24.140625 16.421875 -23.703125 C 15.472656 -23.265625 14.617188 -22.957031 13.859375 -22.78125 C 13.378906 -20.96875 12.585938 -19.148438 11.484375 -17.328125 C 9.984375 -14.835938 8.140625 -12.8125 5.953125 -11.25 C 3.773438 -9.695312 1.382812 -8.65625 -1.21875 -8.125 C -3.832031 -7.601562 -6.5625 -7.625 -9.40625 -8.1875 C -12.257812 -8.75 -15.109375 -9.890625 -17.953125 -11.609375 Z M -27.0625 -35.015625 C -27.375 -34.003906 -26.835938 -32.84375 -25.453125 -31.53125 C -24.066406 -30.226562 -21.976562 -28.890625 -19.1875 -27.515625 C -16.40625 -26.148438 -13.050781 -24.828125 -9.125 -23.546875 C -5.21875 -22.285156 -1.71875 -21.425781 1.375 -20.96875 C 4.46875 -20.507812 6.960938 -20.425781 8.859375 -20.71875 C 10.765625 -21.019531 11.863281 -21.671875 12.15625 -22.671875 C 12.445312 -23.679688 11.875 -24.800781 10.4375 -26.03125 C 9.007812 -27.269531 6.875 -28.546875 4.03125 -29.859375 C 1.195312 -31.179688 -2.15625 -32.460938 -6.03125 -33.703125 C -9.925781 -35.003906 -13.398438 -35.910156 -16.453125 -36.421875 C -19.503906 -36.941406 -21.957031 -37.085938 -23.8125 -36.859375 C -25.675781 -36.640625 -26.757812 -36.023438 -27.0625 -35.015625 Z M -27.0625 -35.015625 "/></g></g></g><g fill="#315098" fill-opacity="1"><g transform="translate(95.100533, 182.630167)"><g><path d="M -4.046875 -1.390625 C -4.429688 -1.503906 -4.78125 -1.703125 -5.09375 -1.984375 C -5.414062 -2.265625 -5.675781 -2.597656 -5.875 -2.984375 C -6.070312 -3.367188 -6.1875 -3.773438 -6.21875 -4.203125 C -6.820312 -3.785156 -7.453125 -3.488281 -8.109375 -3.3125 C -8.773438 -3.144531 -9.476562 -3.171875 -10.21875 -3.390625 C -10.46875 -3.460938 -10.71875 -3.578125 -10.96875 -3.734375 C -11.21875 -3.890625 -11.429688 -4.078125 -11.609375 -4.296875 C -11.796875 -4.515625 -11.929688 -4.734375 -12.015625 -4.953125 C -12.109375 -5.179688 -12.128906 -5.394531 -12.078125 -5.59375 L -9.65625 -13.8125 C -9.5 -13.84375 -9.347656 -13.859375 -9.203125 -13.859375 C -9.054688 -13.859375 -8.894531 -13.835938 -8.71875 -13.796875 C -8.40625 -13.703125 -8.140625 -13.546875 -7.921875 -13.328125 C -7.710938 -13.109375 -7.554688 -12.859375 -7.453125 -12.578125 C -7.347656 -12.304688 -7.28125 -12.03125 -7.25 -11.75 C -7.226562 -11.476562 -7.25 -11.238281 -7.3125 -11.03125 C -7.457031 -10.550781 -7.675781 -10.109375 -7.96875 -9.703125 C -8.257812 -9.304688 -8.582031 -8.925781 -8.9375 -8.5625 C -9.300781 -8.207031 -9.660156 -7.863281 -10.015625 -7.53125 C -10.367188 -7.195312 -10.675781 -6.867188 -10.9375 -6.546875 C -11.207031 -6.222656 -11.390625 -5.898438 -11.484375 -5.578125 C -11.515625 -5.484375 -11.488281 -5.390625 -11.40625 -5.296875 C -11.332031 -5.210938 -11.265625 -5.164062 -11.203125 -5.15625 C -10.910156 -5.0625 -10.609375 -5.109375 -10.296875 -5.296875 C -9.992188 -5.492188 -9.691406 -5.78125 -9.390625 -6.15625 C -9.085938 -6.539062 -8.769531 -6.972656 -8.4375 -7.453125 C -8.101562 -7.929688 -7.742188 -8.421875 -7.359375 -8.921875 C -6.984375 -9.429688 -6.570312 -9.910156 -6.125 -10.359375 C -5.6875 -10.804688 -5.207031 -11.179688 -4.6875 -11.484375 C -4.175781 -11.796875 -3.613281 -12 -3 -12.09375 C -2.394531 -12.195312 -1.734375 -12.144531 -1.015625 -11.9375 C -0.191406 -11.695312 0.492188 -11.285156 1.046875 -10.703125 C 1.609375 -10.117188 1.96875 -9.382812 2.125 -8.5 C 2.28125 -7.613281 2.191406 -6.582031 1.859375 -5.40625 C 1.660156 -4.75 1.378906 -4.128906 1.015625 -3.546875 C 0.660156 -2.960938 0.222656 -2.472656 -0.296875 -2.078125 C -0.816406 -1.679688 -1.390625 -1.414062 -2.015625 -1.28125 C -2.648438 -1.144531 -3.328125 -1.179688 -4.046875 -1.390625 Z M 0.796875 -9.640625 C 0.441406 -9.742188 0.0703125 -9.695312 -0.3125 -9.5 C -0.695312 -9.3125 -1.097656 -9.019531 -1.515625 -8.625 C -1.929688 -8.238281 -2.363281 -7.796875 -2.8125 -7.296875 C -3.269531 -6.804688 -3.75 -6.3125 -4.25 -5.8125 C -4.757812 -5.3125 -5.285156 -4.863281 -5.828125 -4.46875 C -5.546875 -4.394531 -5.191406 -4.375 -4.765625 -4.40625 C -4.335938 -4.4375 -3.875 -4.507812 -3.375 -4.625 C -2.875 -4.75 -2.367188 -4.914062 -1.859375 -5.125 C -1.347656 -5.34375 -0.867188 -5.597656 -0.421875 -5.890625 C 0.0234375 -6.191406 0.410156 -6.53125 0.734375 -6.90625 C 1.054688 -7.28125 1.285156 -7.691406 1.421875 -8.140625 C 1.523438 -8.503906 1.507812 -8.828125 1.375 -9.109375 C 1.25 -9.390625 1.054688 -9.566406 0.796875 -9.640625 Z M 0.796875 -9.640625 "/></g></g></g><g fill="#315098" fill-opacity="1"><g transform="translate(98.303577, 172.118894)"><g><path d="M -8.890625 -4.140625 L -7.125 -8.546875 L 1.96875 -4.90625 L 0.203125 -0.5 Z M -11.078125 -4.859375 C -11.546875 -5.046875 -11.84375 -5.28125 -11.96875 -5.5625 C -12.101562 -5.84375 -12.125 -6.171875 -12.03125 -6.546875 C -11.945312 -6.929688 -11.8125 -7.359375 -11.625 -7.828125 C -11.4375 -8.285156 -11.25 -8.675781 -11.0625 -9 C -10.875 -9.320312 -10.628906 -9.539062 -10.328125 -9.65625 C -10.035156 -9.769531 -9.65625 -9.734375 -9.1875 -9.546875 C -8.8125 -9.398438 -8.546875 -9.222656 -8.390625 -9.015625 C -8.234375 -8.816406 -8.15625 -8.59375 -8.15625 -8.34375 C -8.15625 -8.101562 -8.203125 -7.832031 -8.296875 -7.53125 C -8.390625 -7.238281 -8.5 -6.929688 -8.625 -6.609375 C -8.757812 -6.265625 -8.894531 -5.953125 -9.03125 -5.671875 C -9.164062 -5.398438 -9.316406 -5.175781 -9.484375 -5 C -9.660156 -4.820312 -9.875 -4.71875 -10.125 -4.6875 C -10.382812 -4.65625 -10.703125 -4.710938 -11.078125 -4.859375 Z M -11.078125 -4.859375 "/></g></g></g><g fill="#315098" fill-opacity="1"><g transform="translate(100.198566, 166.990799)"><g><path d="M -8.53125 -4.84375 L -6.34375 -9.046875 L -5.8125 -8.78125 C -5.882812 -9.164062 -5.890625 -9.597656 -5.828125 -10.078125 C -5.765625 -10.554688 -5.59375 -11.070312 -5.3125 -11.625 C -5.050781 -12.125 -4.75 -12.515625 -4.40625 -12.796875 C -4.0625 -13.078125 -3.695312 -13.253906 -3.3125 -13.328125 C -2.9375 -13.398438 -2.5625 -13.394531 -2.1875 -13.3125 C -1.8125 -13.238281 -1.457031 -13.117188 -1.125 -12.953125 L 5.046875 -9.75 L 2.875 -5.53125 L -3.78125 -8.984375 C -4.101562 -9.148438 -4.390625 -9.265625 -4.640625 -9.328125 C -4.890625 -9.398438 -5.070312 -9.320312 -5.1875 -9.09375 C -5.269531 -8.925781 -5.265625 -8.78125 -5.171875 -8.65625 C -5.085938 -8.53125 -4.960938 -8.410156 -4.796875 -8.296875 C -4.628906 -8.179688 -4.460938 -8.082031 -4.296875 -8 L 2.359375 -4.546875 L 0.171875 -0.34375 Z M -8.53125 -4.84375 "/></g></g></g><g fill="#315098" fill-opacity="1"><g transform="translate(105.245, 157.299535)"><g><path d="M 3.34375 -4.453125 C 2.90625 -3.804688 2.398438 -3.28125 1.828125 -2.875 C 1.265625 -2.476562 0.65625 -2.207031 0 -2.0625 C -0.644531 -1.925781 -1.304688 -1.925781 -1.984375 -2.0625 C -2.660156 -2.207031 -3.316406 -2.492188 -3.953125 -2.921875 C -4.804688 -3.503906 -5.429688 -4.1875 -5.828125 -4.96875 C -6.234375 -5.757812 -6.394531 -6.597656 -6.3125 -7.484375 C -6.238281 -8.367188 -5.910156 -9.242188 -5.328125 -10.109375 C -4.992188 -10.585938 -4.625 -11.019531 -4.21875 -11.40625 C -3.820312 -11.789062 -3.414062 -12.097656 -3 -12.328125 C -2.59375 -12.566406 -2.222656 -12.703125 -1.890625 -12.734375 L 1.234375 -7.375 L 1.15625 -7.296875 C 0.875 -7.484375 0.539062 -7.691406 0.15625 -7.921875 C -0.21875 -8.148438 -0.617188 -8.375 -1.046875 -8.59375 C -1.484375 -8.820312 -1.921875 -9.023438 -2.359375 -9.203125 C -2.796875 -9.390625 -3.203125 -9.53125 -3.578125 -9.625 C -3.960938 -9.726562 -4.300781 -9.765625 -4.59375 -9.734375 C -4.882812 -9.710938 -5.09375 -9.601562 -5.21875 -9.40625 C -5.34375 -9.226562 -5.351562 -9.007812 -5.25 -8.75 C -5.144531 -8.488281 -4.957031 -8.222656 -4.6875 -7.953125 C -4.425781 -7.679688 -4.132812 -7.4375 -3.8125 -7.21875 C -3.238281 -6.832031 -2.65625 -6.53125 -2.0625 -6.3125 C -1.46875 -6.101562 -0.894531 -5.992188 -0.34375 -5.984375 C 0.207031 -5.972656 0.707031 -6.054688 1.15625 -6.234375 C 1.601562 -6.421875 1.960938 -6.710938 2.234375 -7.109375 C 2.390625 -7.347656 2.5 -7.617188 2.5625 -7.921875 C 2.632812 -8.234375 2.648438 -8.523438 2.609375 -8.796875 C 2.566406 -9.066406 2.460938 -9.28125 2.296875 -9.4375 C 2.472656 -9.5625 2.691406 -9.578125 2.953125 -9.484375 C 3.210938 -9.398438 3.460938 -9.21875 3.703125 -8.9375 C 3.953125 -8.664062 4.128906 -8.3125 4.234375 -7.875 C 4.335938 -7.4375 4.328125 -6.925781 4.203125 -6.34375 C 4.085938 -5.757812 3.800781 -5.128906 3.34375 -4.453125 Z M 3.34375 -4.453125 "/></g></g></g><g fill="#315098" fill-opacity="1"><g transform="translate(110.42699, 149.606723)"><g><path d="M 3.96875 -4.234375 C 3.4375 -3.617188 2.859375 -3.128906 2.234375 -2.765625 C 1.609375 -2.410156 0.957031 -2.191406 0.28125 -2.109375 C -0.394531 -2.023438 -1.066406 -2.082031 -1.734375 -2.28125 C -2.398438 -2.488281 -3.023438 -2.84375 -3.609375 -3.34375 C -4.390625 -4.007812 -4.9375 -4.753906 -5.25 -5.578125 C -5.5625 -6.410156 -5.628906 -7.257812 -5.453125 -8.125 C -5.285156 -9 -4.863281 -9.832031 -4.1875 -10.625 C -3.832031 -11.03125 -3.4375 -11.382812 -3 -11.6875 C -2.570312 -11.988281 -2.113281 -12.195312 -1.625 -12.3125 C -1.132812 -12.4375 -0.632812 -12.4375 -0.125 -12.3125 C 0.382812 -12.195312 0.894531 -11.921875 1.40625 -11.484375 C 1.78125 -11.160156 2.054688 -10.800781 2.234375 -10.40625 C 2.421875 -10.019531 2.519531 -9.609375 2.53125 -9.171875 C 2.550781 -8.742188 2.492188 -8.332031 2.359375 -7.9375 C 2.222656 -7.550781 2.019531 -7.195312 1.75 -6.875 C 1.582031 -6.6875 1.394531 -6.515625 1.1875 -6.359375 C 0.976562 -6.203125 0.757812 -6.0625 0.53125 -5.9375 C 1.039062 -5.757812 1.523438 -5.722656 1.984375 -5.828125 C 2.441406 -5.941406 2.867188 -6.234375 3.265625 -6.703125 C 3.398438 -6.859375 3.507812 -7.054688 3.59375 -7.296875 C 3.675781 -7.535156 3.726562 -7.785156 3.75 -8.046875 C 3.769531 -8.304688 3.753906 -8.546875 3.703125 -8.765625 C 3.660156 -8.992188 3.582031 -9.171875 3.46875 -9.296875 C 3.65625 -9.398438 3.875 -9.394531 4.125 -9.28125 C 4.375 -9.164062 4.601562 -8.957031 4.8125 -8.65625 C 5.03125 -8.363281 5.171875 -7.992188 5.234375 -7.546875 C 5.296875 -7.097656 5.234375 -6.585938 5.046875 -6.015625 C 4.859375 -5.453125 4.5 -4.859375 3.96875 -4.234375 Z M 0.015625 -6.15625 C 0.0664062 -6.507812 0.0078125 -6.910156 -0.15625 -7.359375 C -0.332031 -7.816406 -0.59375 -8.273438 -0.9375 -8.734375 C -1.28125 -9.203125 -1.65625 -9.613281 -2.0625 -9.96875 C -2.4375 -10.28125 -2.738281 -10.457031 -2.96875 -10.5 C -3.195312 -10.539062 -3.351562 -10.515625 -3.4375 -10.421875 C -3.5625 -10.273438 -3.582031 -10.070312 -3.5 -9.8125 C -3.425781 -9.5625 -3.28125 -9.28125 -3.0625 -8.96875 C -2.84375 -8.65625 -2.570312 -8.332031 -2.25 -8 C -1.925781 -7.664062 -1.578125 -7.335938 -1.203125 -7.015625 C -1.003906 -6.835938 -0.800781 -6.679688 -0.59375 -6.546875 C -0.382812 -6.410156 -0.179688 -6.28125 0.015625 -6.15625 Z M 0.015625 -6.15625 "/></g></g></g><g fill="#315098" fill-opacity="1"><g transform="translate(116.760404, 142.341012)"><g/></g></g><g fill="#315098" fill-opacity="1"><g transform="translate(119.203998, 139.654374)"><g><path d="M 1.09375 -0.921875 C 0.957031 -0.804688 0.773438 -0.742188 0.546875 -0.734375 C 0.328125 -0.734375 0.0820312 -0.796875 -0.1875 -0.921875 C -0.457031 -1.046875 -0.722656 -1.257812 -0.984375 -1.5625 C -1.328125 -1.96875 -1.539062 -2.398438 -1.625 -2.859375 C -1.71875 -3.328125 -1.722656 -3.8125 -1.640625 -4.3125 C -1.554688 -4.820312 -1.421875 -5.335938 -1.234375 -5.859375 C -1.054688 -6.390625 -0.863281 -6.929688 -0.65625 -7.484375 C -0.445312 -8.035156 -0.257812 -8.585938 -0.09375 -9.140625 C 0.0625 -9.703125 0.160156 -10.253906 0.203125 -10.796875 C 0.242188 -11.347656 0.191406 -11.890625 0.046875 -12.421875 C -0.0976562 -12.960938 -0.382812 -13.484375 -0.8125 -13.984375 C -0.976562 -14.179688 -1.1875 -14.320312 -1.4375 -14.40625 C -1.6875 -14.5 -1.953125 -14.53125 -2.234375 -14.5 C -2.515625 -14.46875 -2.769531 -14.359375 -3 -14.171875 C -3.382812 -13.835938 -3.648438 -13.4375 -3.796875 -12.96875 C -3.953125 -12.507812 -3.984375 -12.039062 -3.890625 -11.5625 C -3.804688 -11.09375 -3.609375 -10.675781 -3.296875 -10.3125 C -3.023438 -9.976562 -2.71875 -9.8125 -2.375 -9.8125 C -2.039062 -9.8125 -1.765625 -9.9375 -1.546875 -10.1875 C -1.316406 -10.007812 -1.15625 -9.78125 -1.0625 -9.5 C -0.976562 -9.21875 -0.957031 -8.925781 -1 -8.625 C -1.039062 -8.320312 -1.132812 -8.03125 -1.28125 -7.75 C -1.425781 -7.476562 -1.613281 -7.242188 -1.84375 -7.046875 C -2.082031 -6.835938 -2.367188 -6.679688 -2.703125 -6.578125 C -3.046875 -6.472656 -3.398438 -6.429688 -3.765625 -6.453125 C -4.128906 -6.484375 -4.488281 -6.582031 -4.84375 -6.75 C -5.195312 -6.914062 -5.515625 -7.160156 -5.796875 -7.484375 C -6.203125 -7.960938 -6.453125 -8.476562 -6.546875 -9.03125 C -6.648438 -9.582031 -6.625 -10.144531 -6.46875 -10.71875 C -6.320312 -11.289062 -6.078125 -11.84375 -5.734375 -12.375 C -5.390625 -12.90625 -4.957031 -13.390625 -4.4375 -13.828125 C -3.882812 -14.296875 -3.289062 -14.65625 -2.65625 -14.90625 C -2.03125 -15.15625 -1.390625 -15.28125 -0.734375 -15.28125 C -0.0859375 -15.28125 0.546875 -15.128906 1.171875 -14.828125 C 1.804688 -14.523438 2.390625 -14.054688 2.921875 -13.421875 C 3.390625 -12.878906 3.695312 -12.289062 3.84375 -11.65625 C 4 -11.019531 4.039062 -10.375 3.96875 -9.71875 C 3.90625 -9.0625 3.757812 -8.40625 3.53125 -7.75 C 3.3125 -7.09375 3.054688 -6.453125 2.765625 -5.828125 C 2.484375 -5.210938 2.203125 -4.640625 1.921875 -4.109375 C 1.640625 -3.578125 1.410156 -3.097656 1.234375 -2.671875 C 1.054688 -2.242188 0.96875 -1.898438 0.96875 -1.640625 L 1.65625 -2.234375 C 2.007812 -2.535156 2.320312 -2.914062 2.59375 -3.375 C 2.875 -3.84375 3.117188 -4.347656 3.328125 -4.890625 C 3.546875 -5.441406 3.753906 -5.976562 3.953125 -6.5 C 4.148438 -7.03125 4.359375 -7.507812 4.578125 -7.9375 C 4.796875 -8.363281 5.046875 -8.695312 5.328125 -8.9375 C 5.679688 -9.238281 6.019531 -9.375 6.34375 -9.34375 L 8.296875 -7.03125 Z M 1.09375 -0.921875 "/></g></g></g><g fill="#315098" fill-opacity="1"><g transform="translate(127.332116, 132.717378)"><g><path d="M -3.25 -5.734375 C -3.8125 -6.609375 -4.203125 -7.46875 -4.421875 -8.3125 C -4.640625 -9.15625 -4.710938 -9.960938 -4.640625 -10.734375 C -4.566406 -11.503906 -4.34375 -12.203125 -3.96875 -12.828125 C -3.59375 -13.460938 -3.070312 -14 -2.40625 -14.4375 C -1.738281 -14.863281 -1.039062 -15.117188 -0.3125 -15.203125 C 0.414062 -15.285156 1.148438 -15.207031 1.890625 -14.96875 C 2.640625 -14.726562 3.347656 -14.328125 4.015625 -13.765625 C 4.679688 -13.210938 5.296875 -12.5 5.859375 -11.625 C 6.421875 -10.757812 6.816406 -9.90625 7.046875 -9.0625 C 7.285156 -8.226562 7.363281 -7.421875 7.28125 -6.640625 C 7.207031 -5.859375 6.976562 -5.15625 6.59375 -4.53125 C 6.21875 -3.90625 5.695312 -3.378906 5.03125 -2.953125 C 4.363281 -2.515625 3.664062 -2.25 2.9375 -2.15625 C 2.21875 -2.070312 1.488281 -2.15625 0.75 -2.40625 C 0.0078125 -2.65625 -0.695312 -3.054688 -1.375 -3.609375 C -2.0625 -4.160156 -2.6875 -4.867188 -3.25 -5.734375 Z M -1.171875 -11.03125 C -0.566406 -10.09375 0.03125 -9.160156 0.625 -8.234375 C 1.226562 -7.304688 1.835938 -6.375 2.453125 -5.4375 C 2.828125 -4.851562 3.140625 -4.394531 3.390625 -4.0625 C 3.648438 -3.738281 3.867188 -3.515625 4.046875 -3.390625 C 4.222656 -3.265625 4.363281 -3.203125 4.46875 -3.203125 C 4.582031 -3.203125 4.6875 -3.234375 4.78125 -3.296875 C 4.882812 -3.359375 4.957031 -3.441406 5 -3.546875 C 5.050781 -3.648438 5.050781 -3.804688 5 -4.015625 C 4.957031 -4.222656 4.84375 -4.507812 4.65625 -4.875 C 4.46875 -5.25 4.1875 -5.726562 3.8125 -6.3125 C 3.195312 -7.25 2.585938 -8.179688 1.984375 -9.109375 C 1.390625 -10.035156 0.789062 -10.96875 0.1875 -11.90625 C -0.195312 -12.488281 -0.519531 -12.945312 -0.78125 -13.28125 C -1.039062 -13.613281 -1.253906 -13.84375 -1.421875 -13.96875 C -1.597656 -14.09375 -1.742188 -14.15625 -1.859375 -14.15625 C -1.972656 -14.15625 -2.082031 -14.125 -2.1875 -14.0625 C -2.28125 -14 -2.347656 -13.914062 -2.390625 -13.8125 C -2.429688 -13.707031 -2.429688 -13.550781 -2.390625 -13.34375 C -2.347656 -13.132812 -2.226562 -12.84375 -2.03125 -12.46875 C -1.84375 -12.09375 -1.554688 -11.613281 -1.171875 -11.03125 Z M -1.171875 -11.03125 "/></g></g></g><g fill="#315098" fill-opacity="1"><g transform="translate(136.689968, 126.641708)"><g><path d="M 1.296875 -0.625 C 1.140625 -0.539062 0.945312 -0.519531 0.71875 -0.5625 C 0.488281 -0.613281 0.257812 -0.734375 0.03125 -0.921875 C -0.1875 -1.117188 -0.382812 -1.398438 -0.5625 -1.765625 C -0.789062 -2.242188 -0.890625 -2.71875 -0.859375 -3.1875 C -0.828125 -3.664062 -0.703125 -4.132812 -0.484375 -4.59375 C -0.273438 -5.0625 -0.0195312 -5.523438 0.28125 -5.984375 C 0.59375 -6.453125 0.914062 -6.925781 1.25 -7.40625 C 1.59375 -7.894531 1.910156 -8.382812 2.203125 -8.875 C 2.503906 -9.375 2.742188 -9.878906 2.921875 -10.390625 C 3.109375 -10.910156 3.195312 -11.445312 3.1875 -12 C 3.175781 -12.5625 3.023438 -13.140625 2.734375 -13.734375 C 2.617188 -13.960938 2.453125 -14.15625 2.234375 -14.3125 C 2.023438 -14.46875 1.78125 -14.5625 1.5 -14.59375 C 1.226562 -14.632812 0.957031 -14.59375 0.6875 -14.46875 C 0.226562 -14.238281 -0.128906 -13.914062 -0.390625 -13.5 C -0.660156 -13.09375 -0.8125 -12.648438 -0.84375 -12.171875 C -0.882812 -11.691406 -0.800781 -11.234375 -0.59375 -10.796875 C -0.414062 -10.410156 -0.160156 -10.175781 0.171875 -10.09375 C 0.503906 -10.007812 0.804688 -10.0625 1.078125 -10.25 C 1.253906 -10.019531 1.347656 -9.753906 1.359375 -9.453125 C 1.378906 -9.160156 1.332031 -8.875 1.21875 -8.59375 C 1.101562 -8.320312 0.9375 -8.070312 0.71875 -7.84375 C 0.507812 -7.613281 0.269531 -7.429688 0 -7.296875 C -0.289062 -7.160156 -0.609375 -7.082031 -0.953125 -7.0625 C -1.304688 -7.039062 -1.660156 -7.085938 -2.015625 -7.203125 C -2.367188 -7.316406 -2.695312 -7.5 -3 -7.75 C -3.300781 -8 -3.539062 -8.316406 -3.71875 -8.703125 C -3.988281 -9.265625 -4.101562 -9.828125 -4.0625 -10.390625 C -4.019531 -10.960938 -3.851562 -11.503906 -3.5625 -12.015625 C -3.269531 -12.523438 -2.882812 -12.992188 -2.40625 -13.421875 C -1.9375 -13.847656 -1.398438 -14.207031 -0.796875 -14.5 C -0.148438 -14.8125 0.507812 -15.007812 1.1875 -15.09375 C 1.863281 -15.1875 2.515625 -15.148438 3.140625 -14.984375 C 3.773438 -14.816406 4.359375 -14.503906 4.890625 -14.046875 C 5.421875 -13.597656 5.867188 -13 6.234375 -12.25 C 6.546875 -11.59375 6.691406 -10.9375 6.671875 -10.28125 C 6.660156 -9.632812 6.535156 -9.003906 6.296875 -8.390625 C 6.066406 -7.785156 5.757812 -7.191406 5.375 -6.609375 C 4.988281 -6.023438 4.578125 -5.46875 4.140625 -4.9375 C 3.710938 -4.414062 3.296875 -3.929688 2.890625 -3.484375 C 2.484375 -3.035156 2.140625 -2.628906 1.859375 -2.265625 C 1.585938 -1.898438 1.421875 -1.59375 1.359375 -1.34375 L 2.171875 -1.734375 C 2.597656 -1.929688 3 -2.222656 3.375 -2.609375 C 3.757812 -2.992188 4.125 -3.421875 4.46875 -3.890625 C 4.8125 -4.359375 5.144531 -4.820312 5.46875 -5.28125 C 5.800781 -5.75 6.128906 -6.160156 6.453125 -6.515625 C 6.773438 -6.878906 7.097656 -7.140625 7.421875 -7.296875 C 7.847656 -7.503906 8.207031 -7.550781 8.5 -7.4375 L 9.8125 -4.703125 Z M 1.296875 -0.625 "/></g></g></g><g fill="#315098" fill-opacity="1"><g transform="translate(146.344596, 122.011785)"><g><path d="M 3.90625 -3.609375 L -0.6875 -2.0625 C -0.445312 -2.832031 -0.238281 -3.644531 -0.0625 -4.5 C 0.113281 -5.363281 0.238281 -6.222656 0.3125 -7.078125 C 0.394531 -7.929688 0.398438 -8.765625 0.328125 -9.578125 C 0.265625 -10.390625 0.117188 -11.132812 -0.109375 -11.8125 C -0.234375 -12.1875 -0.40625 -12.53125 -0.625 -12.84375 C -0.851562 -13.15625 -1.109375 -13.347656 -1.390625 -13.421875 L 2.953125 -14.890625 C 3.304688 -14.679688 3.578125 -14.46875 3.765625 -14.25 C 3.960938 -14.03125 4.113281 -13.773438 4.21875 -13.484375 C 4.375 -13.003906 4.410156 -12.53125 4.328125 -12.0625 C 4.253906 -11.59375 4.097656 -11.132812 3.859375 -10.6875 C 3.628906 -10.25 3.351562 -9.8125 3.03125 -9.375 C 2.71875 -8.945312 2.398438 -8.523438 2.078125 -8.109375 C 1.765625 -7.691406 1.476562 -7.289062 1.21875 -6.90625 C 0.96875 -6.53125 0.785156 -6.164062 0.671875 -5.8125 C 0.554688 -5.457031 0.550781 -5.113281 0.65625 -4.78125 C 0.8125 -4.34375 1.09375 -4.015625 1.5 -3.796875 C 1.90625 -3.585938 2.375 -3.570312 2.90625 -3.75 L 3.75 -4.03125 L 2.484375 -7.78125 L 6.734375 -9.21875 L 8 -5.46875 L 8.65625 -5.6875 L 8.8125 -5.265625 L 8.15625 -5.046875 L 8.84375 -2.984375 L 4.59375 -1.546875 Z M 3.90625 -3.609375 "/></g></g></g></svg>